<svg width="59" height="81" viewBox="0 0 59 81" fill="none" xmlns="http://www.w3.org/2000/svg">
<path d="M45.95 5.6L44.9954 6.75706L45.0111 6.76998L45.0271 6.78247L45.95 5.6ZM49.25 30.95L47.9234 30.2499L47.9197 30.2569L47.9161 30.264L49.25 30.95ZM42.05 41.15L43.1443 42.1759L43.1522 42.1675L43.1599 42.159L42.05 41.15ZM32.45 50.6L33.4424 51.7248L33.4516 51.7167L33.4606 51.7084L32.45 50.6ZM22.55 59.6L23.5573 60.7115L23.5667 60.703L23.5759 60.6943L22.55 59.6ZM14.45 68.45L13.2404 67.563L11.4899 69.95H14.45V68.45ZM52.7 66.8L53.7607 67.8607L53.7837 67.8376L53.8057 67.8136L52.7 66.8ZM54.95 60.8V59.3H53.6491L53.4651 60.5879L54.95 60.8ZM57.5 60.8H59V59.3H57.5V60.8ZM57.65 73.1L56.1509 73.1517L56.151 73.1535L57.65 73.1ZM58.1 80.75L57.7746 82.2143L59.7716 82.6581L59.5944 80.6201L58.1 80.75ZM53.15 80.3L53.2124 78.8013L53.15 80.3ZM44.9 80L44.9484 78.5008L44.9242 78.5H44.9V80ZM0.650001 80H-0.849999V81.5H0.650001V80ZM0.650001 77.45L-0.45991 76.441L-0.849999 76.8701V77.45H0.650001ZM11.45 66.95L12.4415 68.0755L12.449 68.069L12.4564 68.0623L11.45 66.95ZM23.6 54.65L22.4789 53.6535L22.4775 53.655L23.6 54.65ZM33.5 40.1L32.1634 39.4191L32.1584 39.4292L33.5 40.1ZM33.5 10.55L32.4393 11.6107L32.4597 11.631L32.4809 11.6506L33.5 10.55ZM11.45 10.25L12.2905 11.4924L12.3028 11.4841L12.315 11.4754L11.45 10.25ZM2.45 20.75L1.71461 22.0574L3.03129 22.798L3.76255 21.4761L2.45 20.75ZM0.0500002 19.4L-1.30819 18.7633L-1.89936 20.0245L-0.685392 20.7074L0.0500002 19.4ZM6.05 10.4L4.93314 9.39868L4.93109 9.40097L6.05 10.4ZM15.65 3.34999L15.0214 1.98805L15.0146 1.99119L15.0079 1.99438L15.65 3.34999ZM29.6 2.14999C36.2675 2.14999 41.3417 3.7427 44.9954 6.75706L46.9046 4.44294C42.5583 0.857292 36.7325 -0.850006 29.6 -0.850006V2.14999ZM45.0271 6.78247C48.6975 9.64721 50.6 13.8222 50.6 19.55H53.6C53.6 13.0778 51.4025 7.95279 46.8729 4.41753L45.0271 6.78247ZM50.6 19.55C50.6 23.3015 49.7116 26.8617 47.9234 30.2499L50.5766 31.6501C52.5884 27.8383 53.6 23.7985 53.6 19.55H50.6ZM47.9161 30.264C46.1836 33.6326 43.8631 36.9257 40.9401 40.141L43.1599 42.159C46.2369 38.7743 48.7164 35.2674 50.5839 31.636L47.9161 30.264ZM40.9557 40.1241C37.9838 43.2941 34.8118 46.4167 31.4394 49.4916L33.4606 51.7084C36.8882 48.5833 40.1162 45.4059 43.1443 42.1759L40.9557 40.1241ZM31.4576 49.4752C28.0466 52.4849 24.7355 55.495 21.5241 58.5057L23.5759 60.6943C26.7645 57.705 30.0534 54.7151 33.4424 51.7248L31.4576 49.4752ZM21.5427 58.4885C18.2795 61.4458 15.5087 64.4698 13.2404 67.563L15.6596 69.3371C17.7913 66.4302 20.4205 63.5542 23.5573 60.7115L21.5427 58.4885ZM14.45 69.95H44.9V66.95H14.45V69.95ZM44.9 69.95C47.0046 69.95 48.7941 69.8099 50.2354 69.505C51.6411 69.2077 52.906 68.7153 53.7607 67.8607L51.6393 65.7393C51.394 65.9847 50.8089 66.3173 49.6146 66.57C48.4559 66.8151 46.8954 66.95 44.9 66.95V69.95ZM53.8057 67.8136C55.2117 66.2798 56.0201 63.9161 56.4349 61.0121L53.4651 60.5879C53.0799 63.2839 52.3883 64.9202 51.5943 65.7864L53.8057 67.8136ZM54.95 62.3H57.5V59.3H54.95V62.3ZM56 60.8C56 66.1057 56.05 70.2259 56.1509 73.1517L59.1491 73.0483C59.05 70.1741 59 66.0943 59 60.8H56ZM56.151 73.1535C56.2517 75.9739 56.403 78.5499 56.6056 80.8799L59.5944 80.6201C59.397 78.3502 59.2483 75.8261 59.149 73.0465L56.151 73.1535ZM58.4254 79.2857C57.3788 79.0531 55.6041 78.901 53.2124 78.8013L53.0876 81.7987C55.4959 81.899 57.0212 82.0469 57.7746 82.2143L58.4254 79.2857ZM53.2124 78.8013C50.8066 78.7011 48.0518 78.6009 44.9484 78.5008L44.8516 81.4992C47.9482 81.5991 50.6934 81.6989 53.0876 81.7987L53.2124 78.8013ZM44.9 78.5C44.8939 78.5 44.8879 78.5 44.8818 78.5C44.8758 78.5 44.8697 78.5 44.8637 78.5C44.8576 78.5 44.8516 78.5 44.8455 78.5C44.8395 78.5 44.8334 78.5 44.8274 78.5C44.8213 78.5 44.8153 78.5 44.8092 78.5C44.8031 78.5 44.7971 78.5 44.791 78.5C44.785 78.5 44.7789 78.5 44.7729 78.5C44.7668 78.5 44.7608 78.5 44.7547 78.5C44.7487 78.5 44.7426 78.5 44.7366 78.5C44.7305 78.5 44.7245 78.5 44.7184 78.5C44.7124 78.5 44.7063 78.5 44.7003 78.5C44.6942 78.5 44.6882 78.5 44.6821 78.5C44.6761 78.5 44.67 78.5 44.664 78.5C44.6579 78.5 44.6519 78.5 44.6458 78.5C44.6398 78.5 44.6337 78.5 44.6277 78.5C44.6216 78.5 44.6156 78.5 44.6095 78.5C44.6035 78.5 44.5974 78.5 44.5914 78.5C44.5853 78.5 44.5793 78.5 44.5732 78.5C44.5672 78.5 44.5611 78.5 44.5551 78.5C44.549 78.5 44.543 78.5 44.5369 78.5C44.5309 78.5 44.5249 78.5 44.5188 78.5C44.5128 78.5 44.5067 78.5 44.5007 78.5C44.4946 78.5 44.4886 78.5 44.4825 78.5C44.4765 78.5 44.4704 78.5 44.4644 78.5C44.4583 78.5 44.4523 78.5 44.4463 78.5C44.4402 78.5 44.4342 78.5 44.4281 78.5C44.4221 78.5 44.416 78.5 44.41 78.5C44.4039 78.5 44.3979 78.5 44.3919 78.5C44.3858 78.5 44.3798 78.5 44.3737 78.5C44.3677 78.5 44.3616 78.5 44.3556 78.5C44.3496 78.5 44.3435 78.5 44.3375 78.5C44.3314 78.5 44.3254 78.5 44.3193 78.5C44.3133 78.5 44.3073 78.5 44.3012 78.5C44.2952 78.5 44.2891 78.5 44.2831 78.5C44.277 78.5 44.271 78.5 44.265 78.5C44.2589 78.5 44.2529 78.5 44.2468 78.5C44.2408 78.5 44.2348 78.5 44.2287 78.5C44.2227 78.5 44.2166 78.5 44.2106 78.5C44.2046 78.5 44.1985 78.5 44.1925 78.5C44.1864 78.5 44.1804 78.5 44.1744 78.5C44.1683 78.5 44.1623 78.5 44.1562 78.5C44.1502 78.5 44.1442 78.5 44.1381 78.5C44.1321 78.5 44.126 78.5 44.12 78.5C44.114 78.5 44.1079 78.5 44.1019 78.5C44.0959 78.5 44.0898 78.5 44.0838 78.5C44.0777 78.5 44.0717 78.5 44.0657 78.5C44.0596 78.5 44.0536 78.5 44.0476 78.5C44.0415 78.5 44.0355 78.5 44.0294 78.5C44.0234 78.5 44.0174 78.5 44.0113 78.5C44.0053 78.5 43.9993 78.5 43.9932 78.5C43.9872 78.5 43.9812 78.5 43.9751 78.5C43.9691 78.5 43.9631 78.5 43.957 78.5C43.951 78.5 43.945 78.5 43.9389 78.5C43.9329 78.5 43.9268 78.5 43.9208 78.5C43.9148 78.5 43.9087 78.5 43.9027 78.5C43.8967 78.5 43.8906 78.5 43.8846 78.5C43.8786 78.5 43.8725 78.5 43.8665 78.5C43.8605 78.5 43.8544 78.5 43.8484 78.5C43.8424 78.5 43.8363 78.5 43.8303 78.5C43.8243 78.5 43.8183 78.5 43.8122 78.5C43.8062 78.5 43.8002 78.5 43.7941 78.5C43.7881 78.5 43.7821 78.5 43.776 78.5C43.77 78.5 43.764 78.5 43.7579 78.5C43.7519 78.5 43.7459 78.5 43.7398 78.5C43.7338 78.5 43.7278 78.5 43.7218 78.5C43.7157 78.5 43.7097 78.5 43.7037 78.5C43.6976 78.5 43.6916 78.5 43.6856 78.5C43.6796 78.5 43.6735 78.5 43.6675 78.5C43.6615 78.5 43.6554 78.5 43.6494 78.5C43.6434 78.5 43.6374 78.5 43.6313 78.5C43.6253 78.5 43.6193 78.5 43.6132 78.5C43.6072 78.5 43.6012 78.5 43.5952 78.5C43.5891 78.5 43.5831 78.5 43.5771 78.5C43.571 78.5 43.565 78.5 43.559 78.5C43.553 78.5 43.5469 78.5 43.5409 78.5C43.5349 78.5 43.5289 78.5 43.5228 78.5C43.5168 78.5 43.5108 78.5 43.5048 78.5C43.4987 78.5 43.4927 78.5 43.4867 78.5C43.4807 78.5 43.4746 78.5 43.4686 78.5C43.4626 78.5 43.4566 78.5 43.4505 78.5C43.4445 78.5 43.4385 78.5 43.4325 78.5C43.4264 78.5 43.4204 78.5 43.4144 78.5C43.4084 78.5 43.4024 78.5 43.3963 78.5C43.3903 78.5 43.3843 78.5 43.3783 78.5C43.3722 78.5 43.3662 78.5 43.3602 78.5C43.3542 78.5 43.3481 78.5 43.3421 78.5C43.3361 78.5 43.3301 78.5 43.3241 78.5C43.318 78.5 43.312 78.5 43.306 78.5C43.3 78.5 43.294 78.5 43.2879 78.5C43.2819 78.5 43.2759 78.5 43.2699 78.5C43.2639 78.5 43.2578 78.5 43.2518 78.5C43.2458 78.5 43.2398 78.5 43.2338 78.5C43.2277 78.5 43.2217 78.5 43.2157 78.5C43.2097 78.5 43.2037 78.5 43.1976 78.5C43.1916 78.5 43.1856 78.5 43.1796 78.5C43.1736 78.5 43.1675 78.5 43.1615 78.5C43.1555 78.5 43.1495 78.5 43.1435 78.5C43.1375 78.5 43.1314 78.5 43.1254 78.5C43.1194 78.5 43.1134 78.5 43.1074 78.5C43.1014 78.5 43.0953 78.5 43.0893 78.5C43.0833 78.5 43.0773 78.5 43.0713 78.5C43.0653 78.5 43.0592 78.5 43.0532 78.5C43.0472 78.5 43.0412 78.5 43.0352 78.5C43.0292 78.5 43.0231 78.5 43.0171 78.5C43.0111 78.5 43.0051 78.5 42.9991 78.5C42.9931 78.5 42.9871 78.5 42.981 78.5C42.975 78.5 42.969 78.5 42.963 78.5C42.957 78.5 42.951 78.5 42.945 78.5C42.9389 78.5 42.9329 78.5 42.9269 78.5C42.9209 78.5 42.9149 78.5 42.9089 78.5C42.9029 78.5 42.8969 78.5 42.8908 78.5C42.8848 78.5 42.8788 78.5 42.8728 78.5C42.8668 78.5 42.8608 78.5 42.8548 78.5C42.8488 78.5 42.8427 78.5 42.8367 78.5C42.8307 78.5 42.8247 78.5 42.8187 78.5C42.8127 78.5 42.8067 78.5 42.8007 78.5C42.7947 78.5 42.7887 78.5 42.7826 78.5C42.7766 78.5 42.7706 78.5 42.7646 78.5C42.7586 78.5 42.7526 78.5 42.7466 78.5C42.7406 78.5 42.7346 78.5 42.7286 78.5C42.7225 78.5 42.7165 78.5 42.7105 78.5C42.7045 78.5 42.6985 78.5 42.6925 78.5C42.6865 78.5 42.6805 78.5 42.6745 78.5C42.6685 78.5 42.6625 78.5 42.6565 78.5C42.6505 78.5 42.6444 78.5 42.6384 78.5C42.6324 78.5 42.6264 78.5 42.6204 78.5C42.6144 78.5 42.6084 78.5 42.6024 78.5C42.5964 78.5 42.5904 78.5 42.5844 78.5C42.5784 78.5 42.5724 78.5 42.5664 78.5C42.5604 78.5 42.5544 78.5 42.5483 78.5C42.5423 78.5 42.5363 78.5 42.5303 78.5C42.5243 78.5 42.5183 78.5 42.5123 78.5C42.5063 78.5 42.5003 78.5 42.4943 78.5C42.4883 78.5 42.4823 78.5 42.4763 78.5C42.4703 78.5 42.4643 78.5 42.4583 78.5C42.4523 78.5 42.4463 78.5 42.4403 78.5C42.4343 78.5 42.4283 78.5 42.4223 78.5C42.4163 78.5 42.4103 78.5 42.4043 78.5C42.3983 78.5 42.3923 78.5 42.3863 78.5C42.3803 78.5 42.3743 78.5 42.3682 78.5C42.3622 78.5 42.3562 78.5 42.3502 78.5C42.3442 78.5 42.3382 78.5 42.3322 78.5C42.3262 78.5 42.3202 78.5 42.3142 78.5C42.3082 78.5 42.3022 78.5 42.2962 78.5C42.2902 78.5 42.2842 78.5 42.2782 78.5C42.2722 78.5 42.2662 78.5 42.2602 78.5C42.2542 78.5 42.2482 78.5 42.2423 78.5C42.2363 78.5 42.2303 78.5 42.2243 78.5C42.2183 78.5 42.2123 78.5 42.2063 78.5C42.2003 78.5 42.1943 78.5 42.1883 78.5C42.1823 78.5 42.1763 78.5 42.1703 78.5C42.1643 78.5 42.1583 78.5 42.1523 78.5C42.1463 78.5 42.1403 78.5 42.1343 78.5C42.1283 78.5 42.1223 78.5 42.1163 78.5C42.1103 78.5 42.1043 78.5 42.0983 78.5C42.0923 78.5 42.0863 78.5 42.0803 78.5C42.0743 78.5 42.0683 78.5 42.0624 78.5C42.0564 78.5 42.0504 78.5 42.0444 78.5C42.0384 78.5 42.0324 78.5 42.0264 78.5C42.0204 78.5 42.0144 78.5 42.0084 78.5C42.0024 78.5 41.9964 78.5 41.9904 78.5C41.9844 78.5 41.9784 78.5 41.9724 78.5C41.9664 78.5 41.9605 78.5 41.9545 78.5C41.9485 78.5 41.9425 78.5 41.9365 78.5C41.9305 78.5 41.9245 78.5 41.9185 78.5C41.9125 78.5 41.9065 78.5 41.9005 78.5C41.8945 78.5 41.8886 78.5 41.8826 78.5C41.8766 78.5 41.8706 78.5 41.8646 78.5C41.8586 78.5 41.8526 78.5 41.8466 78.5C41.8406 78.5 41.8346 78.5 41.8286 78.5C41.8227 78.5 41.8167 78.5 41.8107 78.5C41.8047 78.5 41.7987 78.5 41.7927 78.5C41.7867 78.5 41.7807 78.5 41.7747 78.5C41.7688 78.5 41.7628 78.5 41.7568 78.5C41.7508 78.5 41.7448 78.5 41.7388 78.5C41.7328 78.5 41.7268 78.5 41.7209 78.5C41.7149 78.5 41.7089 78.5 41.7029 78.5C41.6969 78.5 41.6909 78.5 41.6849 78.5C41.6789 78.5 41.673 78.5 41.667 78.5C41.661 78.5 41.655 78.5 41.649 78.5C41.643 78.5 41.637 78.5 41.6311 78.5C41.6251 78.5 41.6191 78.5 41.6131 78.5C41.6071 78.5 41.6011 78.5 41.5951 78.5C41.5892 78.5 41.5832 78.5 41.5772 78.5C41.5712 78.5 41.5652 78.5 41.5592 78.5C41.5533 78.5 41.5473 78.5 41.5413 78.5C41.5353 78.5 41.5293 78.5 41.5233 78.5C41.5173 78.5 41.5114 78.5 41.5054 78.5C41.4994 78.5 41.4934 78.5 41.4874 78.5C41.4815 78.5 41.4755 78.5 41.4695 78.5C41.4635 78.5 41.4575 78.5 41.4515 78.5C41.4456 78.5 41.4396 78.5 41.4336 78.5C41.4276 78.5 41.4216 78.5 41.4157 78.5C41.4097 78.5 41.4037 78.5 41.3977 78.5C41.3917 78.5 41.3857 78.5 41.3798 78.5C41.3738 78.5 41.3678 78.5 41.3618 78.5C41.3559 78.5 41.3499 78.5 41.3439 78.5C41.3379 78.5 41.3319 78.5 41.326 78.5C41.32 78.5 41.314 78.5 41.308 78.5C41.302 78.5 41.2961 78.5 41.2901 78.5C41.2841 78.5 41.2781 78.5 41.2721 78.5C41.2662 78.5 41.2602 78.5 41.2542 78.5C41.2482 78.5 41.2423 78.5 41.2363 78.5C41.2303 78.5 41.2243 78.5 41.2183 78.5C41.2124 78.5 41.2064 78.5 41.2004 78.5C41.1944 78.5 41.1885 78.5 41.1825 78.5C41.1765 78.5 41.1705 78.5 41.1646 78.5C41.1586 78.5 41.1526 78.5 41.1466 78.5C41.1407 78.5 41.1347 78.5 41.1287 78.5C41.1227 78.5 41.1168 78.5 41.1108 78.5C41.1048 78.5 41.0988 78.5 41.0929 78.5C41.0869 78.5 41.0809 78.5 41.0749 78.5C41.069 78.5 41.063 78.5 41.057 78.5C41.051 78.5 41.0451 78.5 41.0391 78.5C41.0331 78.5 41.0272 78.5 41.0212 78.5C41.0152 78.5 41.0092 78.5 41.0033 78.5C40.9973 78.5 40.9913 78.5 40.9853 78.5C40.9794 78.5 40.9734 78.5 40.9674 78.5C40.9615 78.5 40.9555 78.5 40.9495 78.5C40.9435 78.5 40.9376 78.5 40.9316 78.5C40.9256 78.5 40.9197 78.5 40.9137 78.5C40.9077 78.5 40.9018 78.5 40.8958 78.5C40.8898 78.5 40.8838 78.5 40.8779 78.5C40.8719 78.5 40.8659 78.5 40.86 78.5C40.854 78.5 40.848 78.5 40.8421 78.5C40.8361 78.5 40.8301 78.5 40.8242 78.5C40.8182 78.5 40.8122 78.5 40.8062 78.5C40.8003 78.5 40.7943 78.5 40.7883 78.5C40.7824 78.5 40.7764 78.5 40.7704 78.5C40.7645 78.5 40.7585 78.5 40.7525 78.5C40.7466 78.5 40.7406 78.5 40.7346 78.5C40.7287 78.5 40.7227 78.5 40.7167 78.5C40.7108 78.5 40.7048 78.5 40.6988 78.5C40.6929 78.5 40.6869 78.5 40.6809 78.5C40.675 78.5 40.669 78.5 40.663 78.5C40.6571 78.5 40.6511 78.5 40.6452 78.5C40.6392 78.5 40.6332 78.5 40.6273 78.5C40.6213 78.5 40.6153 78.5 40.6094 78.5C40.6034 78.5 40.5974 78.5 40.5915 78.5C40.5855 78.5 40.5796 78.5 40.5736 78.5C40.5676 78.5 40.5617 78.5 40.5557 78.5C40.5497 78.5 40.5438 78.5 40.5378 78.5C40.5318 78.5 40.5259 78.5 40.5199 78.5C40.514 78.5 40.508 78.5 40.502 78.5C40.4961 78.5 40.4901 78.5 40.4842 78.5C40.4782 78.5 40.4722 78.5 40.4663 78.5C40.4603 78.5 40.4543 78.5 40.4484 78.5C40.4424 78.5 40.4365 78.5 40.4305 78.5C40.4245 78.5 40.4186 78.5 40.4126 78.5C40.4067 78.5 40.4007 78.5 40.3948 78.5C40.3888 78.5 40.3828 78.5 40.3769 78.5C40.3709 78.5 40.365 78.5 40.359 78.5C40.353 78.5 40.3471 78.5 40.3411 78.5C40.3352 78.5 40.3292 78.5 40.3232 78.5C40.3173 78.5 40.3113 78.5 40.3054 78.5C40.2994 78.5 40.2935 78.5 40.2875 78.5C40.2815 78.5 40.2756 78.5 40.2696 78.5C40.2637 78.5 40.2577 78.5 40.2518 78.5C40.2458 78.5 40.2399 78.5 40.2339 78.5C40.2279 78.5 40.222 78.5 40.216 78.5C40.2101 78.5 40.2041 78.5 40.1982 78.5C40.1922 78.5 40.1863 78.5 40.1803 78.5C40.1743 78.5 40.1684 78.5 40.1624 78.5C40.1565 78.5 40.1505 78.5 40.1446 78.5C40.1386 78.5 40.1327 78.5 40.1267 78.5C40.1208 78.5 40.1148 78.5 40.1088 78.5C40.1029 78.5 40.0969 78.5 40.091 78.5C40.085 78.5 40.0791 78.5 40.0731 78.5C40.0672 78.5 40.0612 78.5 40.0553 78.5C40.0493 78.5 40.0434 78.5 40.0374 78.5C40.0315 78.5 40.0255 78.5 40.0196 78.5C40.0136 78.5 40.0077 78.5 40.0017 78.5C39.9958 78.5 39.9898 78.5 39.9839 78.5C39.9779 78.5 39.972 78.5 39.966 78.5C39.9601 78.5 39.9541 78.5 39.9482 78.5C39.9422 78.5 39.9363 78.5 39.9303 78.5C39.9244 78.5 39.9184 78.5 39.9125 78.5C39.9065 78.5 39.9006 78.5 39.8946 78.5C39.8887 78.5 39.8827 78.5 39.8768 78.5C39.8708 78.5 39.8649 78.5 39.8589 78.5C39.853 78.5 39.847 78.5 39.8411 78.5C39.8351 78.5 39.8292 78.5 39.8232 78.5C39.8173 78.5 39.8113 78.5 39.8054 78.5C39.7995 78.5 39.7935 78.5 39.7876 78.5C39.7816 78.5 39.7757 78.5 39.7697 78.5C39.7638 78.5 39.7578 78.5 39.7519 78.5C39.7459 78.5 39.74 78.5 39.7341 78.5C39.7281 78.5 39.7222 78.5 39.7162 78.5C39.7103 78.5 39.7043 78.5 39.6984 78.5C39.6924 78.5 39.6865 78.5 39.6805 78.5C39.6746 78.5 39.6687 78.5 39.6627 78.5C39.6568 78.5 39.6508 78.5 39.6449 78.5C39.6389 78.5 39.633 78.5 39.6271 78.5C39.6211 78.5 39.6152 78.5 39.6092 78.5C39.6033 78.5 39.5973 78.5 39.5914 78.5C39.5855 78.5 39.5795 78.5 39.5736 78.5C39.5676 78.5 39.5617 78.5 39.5558 78.5C39.5498 78.5 39.5439 78.5 39.5379 78.5C39.532 78.5 39.526 78.5 39.5201 78.5C39.5142 78.5 39.5082 78.5 39.5023 78.5C39.4963 78.5 39.4904 78.5 39.4845 78.5C39.4785 78.5 39.4726 78.5 39.4666 78.5C39.4607 78.5 39.4548 78.5 39.4488 78.5C39.4429 78.5 39.4369 78.5 39.431 78.5C39.4251 78.5 39.4191 78.5 39.4132 78.5C39.4073 78.5 39.4013 78.5 39.3954 78.5C39.3894 78.5 39.3835 78.5 39.3776 78.5C39.3716 78.5 39.3657 78.5 39.3598 78.5C39.3538 78.5 39.3479 78.5 39.3419 78.5C39.336 78.5 39.3301 78.5 39.3241 78.5C39.3182 78.5 39.3123 78.5 39.3063 78.5C39.3004 78.5 39.2945 78.5 39.2885 78.5C39.2826 78.5 39.2766 78.5 39.2707 78.5C39.2648 78.5 39.2588 78.5 39.2529 78.5C39.247 78.5 39.241 78.5 39.2351 78.5C39.2292 78.5 39.2232 78.5 39.2173 78.5C39.2114 78.5 39.2054 78.5 39.1995 78.5C39.1936 78.5 39.1876 78.5 39.1817 78.5C39.1758 78.5 39.1698 78.5 39.1639 78.5C39.158 78.5 39.152 78.5 39.1461 78.5C39.1402 78.5 39.1342 78.5 39.1283 78.5C39.1224 78.5 39.1164 78.5 39.1105 78.5C39.1046 78.5 39.0986 78.5 39.0927 78.5C39.0868 78.5 39.0808 78.5 39.0749 78.5C39.069 78.5 39.0631 78.5 39.0571 78.5C39.0512 78.5 39.0453 78.5 39.0393 78.5C39.0334 78.5 39.0275 78.5 39.0215 78.5C39.0156 78.5 39.0097 78.5 39.0037 78.5C38.9978 78.5 38.9919 78.5 38.986 78.5C38.98 78.5 38.9741 78.5 38.9682 78.5C38.9622 78.5 38.9563 78.5 38.9504 78.5C38.9445 78.5 38.9385 78.5 38.9326 78.5C38.9267 78.5 38.9207 78.5 38.9148 78.5C38.9089 78.5 38.903 78.5 38.897 78.5C38.8911 78.5 38.8852 78.5 38.8793 78.5C38.8733 78.5 38.8674 78.5 38.8615 78.5C38.8556 78.5 38.8496 78.5 38.8437 78.5C38.8378 78.5 38.8318 78.5 38.8259 78.5C38.82 78.5 38.8141 78.5 38.8081 78.5C38.8022 78.5 38.7963 78.5 38.7904 78.5C38.7844 78.5 38.7785 78.5 38.7726 78.5C38.7667 78.5 38.7607 78.5 38.7548 78.5C38.7489 78.5 38.743 78.5 38.737 78.5C38.7311 78.5 38.7252 78.5 38.7193 78.5C38.7134 78.5 38.7074 78.5 38.7015 78.5C38.6956 78.5 38.6897 78.5 38.6837 78.5C38.6778 78.5 38.6719 78.5 38.666 78.5C38.66 78.5 38.6541 78.5 38.6482 78.5C38.6423 78.5 38.6364 78.5 38.6304 78.5C38.6245 78.5 38.6186 78.5 38.6127 78.5C38.6068 78.5 38.6008 78.5 38.5949 78.5C38.589 78.5 38.5831 78.5 38.5772 78.5C38.5712 78.5 38.5653 78.5 38.5594 78.5C38.5535 78.5 38.5476 78.5 38.5416 78.5C38.5357 78.5 38.5298 78.5 38.5239 78.5C38.518 78.5 38.512 78.5 38.5061 78.5C38.5002 78.5 38.4943 78.5 38.4884 78.5C38.4824 78.5 38.4765 78.5 38.4706 78.5C38.4647 78.5 38.4588 78.5 38.4529 78.5C38.4469 78.5 38.441 78.5 38.4351 78.5C38.4292 78.5 38.4233 78.5 38.4173 78.5C38.4114 78.5 38.4055 78.5 38.3996 78.5C38.3937 78.5 38.3878 78.5 38.3818 78.5C38.3759 78.5 38.37 78.5 38.3641 78.5C38.3582 78.5 38.3523 78.5 38.3464 78.5C38.3404 78.5 38.3345 78.5 38.3286 78.5C38.3227 78.5 38.3168 78.5 38.3109 78.5C38.3049 78.5 38.299 78.5 38.2931 78.5C38.2872 78.5 38.2813 78.5 38.2754 78.5C38.2695 78.5 38.2635 78.5 38.2576 78.5C38.2517 78.5 38.2458 78.5 38.2399 78.5C38.234 78.5 38.2281 78.5 38.2222 78.5C38.2162 78.5 38.2103 78.5 38.2044 78.5C38.1985 78.5 38.1926 78.5 38.1867 78.5C38.1808 78.5 38.1749 78.5 38.1689 78.5C38.163 78.5 38.1571 78.5 38.1512 78.5C38.1453 78.5 38.1394 78.5 38.1335 78.5C38.1276 78.5 38.1217 78.5 38.1157 78.5C38.1098 78.5 38.1039 78.5 38.098 78.5C38.0921 78.5 38.0862 78.5 38.0803 78.5C38.0744 78.5 38.0685 78.5 38.0626 78.5C38.0566 78.5 38.0507 78.5 38.0448 78.5C38.0389 78.5 38.033 78.5 38.0271 78.5C38.0212 78.5 38.0153 78.5 38.0094 78.5C38.0035 78.5 37.9976 78.5 37.9917 78.5C37.9857 78.5 37.9798 78.5 37.9739 78.5C37.968 78.5 37.9621 78.5 37.9562 78.5C37.9503 78.5 37.9444 78.5 37.9385 78.5C37.9326 78.5 37.9267 78.5 37.9208 78.5C37.9149 78.5 37.909 78.5 37.9031 78.5C37.8971 78.5 37.8912 78.5 37.8853 78.5C37.8794 78.5 37.8735 78.5 37.8676 78.5C37.8617 78.5 37.8558 78.5 37.8499 78.5C37.844 78.5 37.8381 78.5 37.8322 78.5C37.8263 78.5 37.8204 78.5 37.8145 78.5C37.8086 78.5 37.8027 78.5 37.7968 78.5C37.7909 78.5 37.785 78.5 37.7791 78.5C37.7732 78.5 37.7673 78.5 37.7613 78.5C37.7554 78.5 37.7495 78.5 37.7436 78.5C37.7377 78.5 37.7318 78.5 37.7259 78.5C37.72 78.5 37.7141 78.5 37.7082 78.5C37.7023 78.5 37.6964 78.5 37.6905 78.5C37.6846 78.5 37.6787 78.5 37.6728 78.5C37.6669 78.5 37.661 78.5 37.6551 78.5C37.6492 78.5 37.6433 78.5 37.6374 78.5C37.6315 78.5 37.6256 78.5 37.6197 78.5C37.6138 78.5 37.6079 78.5 37.602 78.5C37.5961 78.5 37.5902 78.5 37.5843 78.5C37.5784 78.5 37.5725 78.5 37.5666 78.5C37.5607 78.5 37.5548 78.5 37.5489 78.5C37.543 78.5 37.5371 78.5 37.5312 78.5C37.5253 78.5 37.5194 78.5 37.5135 78.5C37.5076 78.5 37.5017 78.5 37.4958 78.5C37.4899 78.5 37.4841 78.5 37.4782 78.5C37.4723 78.5 37.4664 78.5 37.4605 78.5C37.4546 78.5 37.4487 78.5 37.4428 78.5C37.4369 78.5 37.431 78.5 37.4251 78.5C37.4192 78.5 37.4133 78.5 37.4074 78.5C37.4015 78.5 37.3956 78.5 37.3897 78.5C37.3838 78.5 37.3779 78.5 37.372 78.5C37.3661 78.5 37.3602 78.5 37.3544 78.5C37.3485 78.5 37.3426 78.5 37.3367 78.5C37.3308 78.5 37.3249 78.5 37.319 78.5C37.3131 78.5 37.3072 78.5 37.3013 78.5C37.2954 78.5 37.2895 78.5 37.2836 78.5C37.2777 78.5 37.2718 78.5 37.266 78.5C37.2601 78.5 37.2542 78.5 37.2483 78.5C37.2424 78.5 37.2365 78.5 37.2306 78.5C37.2247 78.5 37.2188 78.5 37.2129 78.5C37.207 78.5 37.2011 78.5 37.1953 78.5C37.1894 78.5 37.1835 78.5 37.1776 78.5C37.1717 78.5 37.1658 78.5 37.1599 78.5C37.154 78.5 37.1481 78.5 37.1422 78.5C37.1364 78.5 37.1305 78.5 37.1246 78.5C37.1187 78.5 37.1128 78.5 37.1069 78.5C37.101 78.5 37.0951 78.5 37.0892 78.5C37.0834 78.5 37.0775 78.5 37.0716 78.5C37.0657 78.5 37.0598 78.5 37.0539 78.5C37.048 78.5 37.0421 78.5 37.0363 78.5C37.0304 78.5 37.0245 78.5 37.0186 78.5C37.0127 78.5 37.0068 78.5 37.0009 78.5C36.995 78.5 36.9892 78.5 36.9833 78.5C36.9774 78.5 36.9715 78.5 36.9656 78.5C36.9597 78.5 36.9538 78.5 36.948 78.5C36.9421 78.5 36.9362 78.5 36.9303 78.5C36.9244 78.5 36.9185 78.5 36.9127 78.5C36.9068 78.5 36.9009 78.5 36.895 78.5C36.8891 78.5 36.8832 78.5 36.8773 78.5C36.8715 78.5 36.8656 78.5 36.8597 78.5C36.8538 78.5 36.8479 78.5 36.842 78.5C36.8362 78.5 36.8303 78.5 36.8244 78.5C36.8185 78.5 36.8126 78.5 36.8068 78.5C36.8009 78.5 36.795 78.5 36.7891 78.5C36.7832 78.5 36.7773 78.5 36.7715 78.5C36.7656 78.5 36.7597 78.5 36.7538 78.5C36.7479 78.5 36.7421 78.5 36.7362 78.5C36.7303 78.5 36.7244 78.5 36.7185 78.5C36.7127 78.5 36.7068 78.5 36.7009 78.5C36.695 78.5 36.6891 78.5 36.6833 78.5C36.6774 78.5 36.6715 78.5 36.6656 78.5C36.6597 78.5 36.6539 78.5 36.648 78.5C36.6421 78.5 36.6362 78.5 36.6303 78.5C36.6245 78.5 36.6186 78.5 36.6127 78.5C36.6068 78.5 36.6009 78.5 36.5951 78.5C36.5892 78.5 36.5833 78.5 36.5774 78.5C36.5716 78.5 36.5657 78.5 36.5598 78.5C36.5539 78.5 36.5481 78.5 36.5422 78.5C36.5363 78.5 36.5304 78.5 36.5245 78.5C36.5187 78.5 36.5128 78.5 36.5069 78.5C36.501 78.5 36.4952 78.5 36.4893 78.5C36.4834 78.5 36.4775 78.5 36.4717 78.5C36.4658 78.5 36.4599 78.5 36.454 78.5C36.4482 78.5 36.4423 78.5 36.4364 78.5C36.4305 78.5 36.4247 78.5 36.4188 78.5C36.4129 78.5 36.4071 78.5 36.4012 78.5C36.3953 78.5 36.3894 78.5 36.3836 78.5C36.3777 78.5 36.3718 78.5 36.3659 78.5C36.3601 78.5 36.3542 78.5 36.3483 78.5C36.3424 78.5 36.3366 78.5 36.3307 78.5C36.3248 78.5 36.319 78.5 36.3131 78.5C36.3072 78.5 36.3013 78.5 36.2955 78.5C36.2896 78.5 36.2837 78.5 36.2779 78.5C36.272 78.5 36.2661 78.5 36.2603 78.5C36.2544 78.5 36.2485 78.5 36.2426 78.5C36.2368 78.5 36.2309 78.5 36.225 78.5C36.2192 78.5 36.2133 78.5 36.2074 78.5C36.2016 78.5 36.1957 78.5 36.1898 78.5C36.1839 78.5 36.1781 78.5 36.1722 78.5C36.1663 78.5 36.1605 78.5 36.1546 78.5C36.1487 78.5 36.1429 78.5 36.137 78.5C36.1311 78.5 36.1253 78.5 36.1194 78.5C36.1135 78.5 36.1077 78.5 36.1018 78.5C36.0959 78.5 36.0901 78.5 36.0842 78.5C36.0783 78.5 36.0725 78.5 36.0666 78.5C36.0607 78.5 36.0549 78.5 36.049 78.5C36.0431 78.5 36.0373 78.5 36.0314 78.5C36.0255 78.5 36.0197 78.5 36.0138 78.5C36.0079 78.5 36.0021 78.5 35.9962 78.5C35.9903 78.5 35.9845 78.5 35.9786 78.5C35.9728 78.5 35.9669 78.5 35.961 78.5C35.9552 78.5 35.9493 78.5 35.9434 78.5C35.9376 78.5 35.9317 78.5 35.9258 78.5C35.92 78.5 35.9141 78.5 35.9083 78.5C35.9024 78.5 35.8965 78.5 35.8907 78.5C35.8848 78.5 35.8789 78.5 35.8731 78.5C35.8672 78.5 35.8614 78.5 35.8555 78.5C35.8496 78.5 35.8438 78.5 35.8379 78.5C35.832 78.5 35.8262 78.5 35.8203 78.5C35.8145 78.5 35.8086 78.5 35.8027 78.5C35.7969 78.5 35.791 78.5 35.7852 78.5C35.7793 78.5 35.7734 78.5 35.7676 78.5C35.7617 78.5 35.7559 78.5 35.75 78.5V81.5C35.7559 81.5 35.7617 81.5 35.7676 81.5C35.7734 81.5 35.7793 81.5 35.7852 81.5C35.791 81.5 35.7969 81.5 35.8027 81.5C35.8086 81.5 35.8145 81.5 35.8203 81.5C35.8262 81.5 35.832 81.5 35.8379 81.5C35.8438 81.5 35.8496 81.5 35.8555 81.5C35.8614 81.5 35.8672 81.5 35.8731 81.5C35.8789 81.5 35.8848 81.5 35.8907 81.5C35.8965 81.5 35.9024 81.5 35.9083 81.5C35.9141 81.5 35.92 81.5 35.9258 81.5C35.9317 81.5 35.9376 81.5 35.9434 81.5C35.9493 81.5 35.9552 81.5 35.961 81.5C35.9669 81.5 35.9728 81.5 35.9786 81.5C35.9845 81.5 35.9903 81.5 35.9962 81.5C36.0021 81.5 36.0079 81.5 36.0138 81.5C36.0197 81.5 36.0255 81.5 36.0314 81.5C36.0373 81.5 36.0431 81.5 36.049 81.5C36.0549 81.5 36.0607 81.5 36.0666 81.5C36.0725 81.5 36.0783 81.5 36.0842 81.5C36.0901 81.5 36.0959 81.5 36.1018 81.5C36.1077 81.5 36.1135 81.5 36.1194 81.5C36.1253 81.5 36.1311 81.5 36.137 81.5C36.1429 81.5 36.1487 81.5 36.1546 81.5C36.1605 81.5 36.1663 81.5 36.1722 81.5C36.1781 81.5 36.1839 81.5 36.1898 81.5C36.1957 81.5 36.2016 81.5 36.2074 81.5C36.2133 81.5 36.2192 81.5 36.225 81.5C36.2309 81.5 36.2368 81.5 36.2426 81.5C36.2485 81.5 36.2544 81.5 36.2603 81.5C36.2661 81.5 36.272 81.5 36.2779 81.5C36.2837 81.5 36.2896 81.5 36.2955 81.5C36.3013 81.5 36.3072 81.5 36.3131 81.5C36.319 81.5 36.3248 81.5 36.3307 81.5C36.3366 81.5 36.3424 81.5 36.3483 81.5C36.3542 81.5 36.3601 81.5 36.3659 81.5C36.3718 81.5 36.3777 81.5 36.3836 81.5C36.3894 81.5 36.3953 81.5 36.4012 81.5C36.4071 81.5 36.4129 81.5 36.4188 81.5C36.4247 81.5 36.4305 81.5 36.4364 81.5C36.4423 81.5 36.4482 81.5 36.454 81.5C36.4599 81.5 36.4658 81.5 36.4717 81.5C36.4775 81.5 36.4834 81.5 36.4893 81.5C36.4952 81.5 36.501 81.5 36.5069 81.5C36.5128 81.5 36.5187 81.5 36.5245 81.5C36.5304 81.5 36.5363 81.5 36.5422 81.5C36.5481 81.5 36.5539 81.5 36.5598 81.5C36.5657 81.5 36.5716 81.5 36.5774 81.5C36.5833 81.5 36.5892 81.5 36.5951 81.5C36.6009 81.5 36.6068 81.5 36.6127 81.5C36.6186 81.5 36.6245 81.5 36.6303 81.5C36.6362 81.5 36.6421 81.5 36.648 81.5C36.6539 81.5 36.6597 81.5 36.6656 81.5C36.6715 81.5 36.6774 81.5 36.6833 81.5C36.6891 81.5 36.695 81.5 36.7009 81.5C36.7068 81.5 36.7127 81.5 36.7185 81.5C36.7244 81.5 36.7303 81.5 36.7362 81.5C36.7421 81.5 36.7479 81.5 36.7538 81.5C36.7597 81.5 36.7656 81.5 36.7715 81.5C36.7773 81.5 36.7832 81.5 36.7891 81.5C36.795 81.5 36.8009 81.5 36.8068 81.5C36.8126 81.5 36.8185 81.5 36.8244 81.5C36.8303 81.5 36.8362 81.5 36.842 81.5C36.8479 81.5 36.8538 81.5 36.8597 81.5C36.8656 81.5 36.8715 81.5 36.8773 81.5C36.8832 81.5 36.8891 81.5 36.895 81.5C36.9009 81.5 36.9068 81.5 36.9127 81.5C36.9185 81.5 36.9244 81.5 36.9303 81.5C36.9362 81.5 36.9421 81.5 36.948 81.5C36.9538 81.5 36.9597 81.5 36.9656 81.5C36.9715 81.5 36.9774 81.5 36.9833 81.5C36.9892 81.5 36.995 81.5 37.0009 81.5C37.0068 81.5 37.0127 81.5 37.0186 81.5C37.0245 81.5 37.0304 81.5 37.0363 81.5C37.0421 81.5 37.048 81.5 37.0539 81.5C37.0598 81.5 37.0657 81.5 37.0716 81.5C37.0775 81.5 37.0834 81.5 37.0892 81.5C37.0951 81.5 37.101 81.5 37.1069 81.5C37.1128 81.5 37.1187 81.5 37.1246 81.5C37.1305 81.5 37.1364 81.5 37.1422 81.5C37.1481 81.5 37.154 81.5 37.1599 81.5C37.1658 81.5 37.1717 81.5 37.1776 81.5C37.1835 81.5 37.1894 81.5 37.1953 81.5C37.2011 81.5 37.207 81.5 37.2129 81.5C37.2188 81.5 37.2247 81.5 37.2306 81.5C37.2365 81.5 37.2424 81.5 37.2483 81.5C37.2542 81.5 37.2601 81.5 37.266 81.5C37.2718 81.5 37.2777 81.5 37.2836 81.5C37.2895 81.5 37.2954 81.5 37.3013 81.5C37.3072 81.5 37.3131 81.5 37.319 81.5C37.3249 81.5 37.3308 81.5 37.3367 81.5C37.3426 81.5 37.3485 81.5 37.3544 81.5C37.3602 81.5 37.3661 81.5 37.372 81.5C37.3779 81.5 37.3838 81.5 37.3897 81.5C37.3956 81.5 37.4015 81.5 37.4074 81.5C37.4133 81.5 37.4192 81.5 37.4251 81.5C37.431 81.5 37.4369 81.5 37.4428 81.5C37.4487 81.5 37.4546 81.5 37.4605 81.5C37.4664 81.5 37.4723 81.5 37.4782 81.5C37.4841 81.5 37.4899 81.5 37.4958 81.5C37.5017 81.5 37.5076 81.5 37.5135 81.5C37.5194 81.5 37.5253 81.5 37.5312 81.5C37.5371 81.5 37.543 81.5 37.5489 81.5C37.5548 81.5 37.5607 81.5 37.5666 81.5C37.5725 81.5 37.5784 81.5 37.5843 81.5C37.5902 81.5 37.5961 81.5 37.602 81.5C37.6079 81.5 37.6138 81.5 37.6197 81.5C37.6256 81.5 37.6315 81.5 37.6374 81.5C37.6433 81.5 37.6492 81.5 37.6551 81.5C37.661 81.5 37.6669 81.5 37.6728 81.5C37.6787 81.5 37.6846 81.5 37.6905 81.5C37.6964 81.5 37.7023 81.5 37.7082 81.5C37.7141 81.5 37.72 81.5 37.7259 81.5C37.7318 81.5 37.7377 81.5 37.7436 81.5C37.7495 81.5 37.7554 81.5 37.7613 81.5C37.7673 81.5 37.7732 81.5 37.7791 81.5C37.785 81.5 37.7909 81.5 37.7968 81.5C37.8027 81.5 37.8086 81.5 37.8145 81.5C37.8204 81.5 37.8263 81.5 37.8322 81.5C37.8381 81.5 37.844 81.5 37.8499 81.5C37.8558 81.5 37.8617 81.5 37.8676 81.5C37.8735 81.5 37.8794 81.5 37.8853 81.5C37.8912 81.5 37.8971 81.5 37.9031 81.5C37.909 81.5 37.9149 81.5 37.9208 81.5C37.9267 81.5 37.9326 81.5 37.9385 81.5C37.9444 81.5 37.9503 81.5 37.9562 81.5C37.9621 81.5 37.968 81.5 37.9739 81.5C37.9798 81.5 37.9857 81.5 37.9917 81.5C37.9976 81.5 38.0035 81.5 38.0094 81.5C38.0153 81.5 38.0212 81.5 38.0271 81.5C38.033 81.5 38.0389 81.5 38.0448 81.5C38.0507 81.5 38.0566 81.5 38.0626 81.5C38.0685 81.5 38.0744 81.5 38.0803 81.5C38.0862 81.5 38.0921 81.5 38.098 81.5C38.1039 81.5 38.1098 81.5 38.1157 81.5C38.1217 81.5 38.1276 81.5 38.1335 81.5C38.1394 81.5 38.1453 81.5 38.1512 81.5C38.1571 81.5 38.163 81.5 38.1689 81.5C38.1749 81.5 38.1808 81.5 38.1867 81.5C38.1926 81.5 38.1985 81.5 38.2044 81.5C38.2103 81.5 38.2162 81.5 38.2222 81.5C38.2281 81.5 38.234 81.5 38.2399 81.5C38.2458 81.5 38.2517 81.5 38.2576 81.5C38.2635 81.5 38.2695 81.5 38.2754 81.5C38.2813 81.5 38.2872 81.5 38.2931 81.5C38.299 81.5 38.3049 81.5 38.3109 81.5C38.3168 81.5 38.3227 81.5 38.3286 81.5C38.3345 81.5 38.3404 81.5 38.3464 81.5C38.3523 81.5 38.3582 81.5 38.3641 81.5C38.37 81.5 38.3759 81.5 38.3818 81.5C38.3878 81.5 38.3937 81.5 38.3996 81.5C38.4055 81.5 38.4114 81.5 38.4173 81.5C38.4233 81.5 38.4292 81.5 38.4351 81.5C38.441 81.5 38.4469 81.5 38.4529 81.5C38.4588 81.5 38.4647 81.5 38.4706 81.5C38.4765 81.5 38.4824 81.5 38.4884 81.5C38.4943 81.5 38.5002 81.5 38.5061 81.5C38.512 81.5 38.518 81.5 38.5239 81.5C38.5298 81.5 38.5357 81.5 38.5416 81.5C38.5476 81.5 38.5535 81.5 38.5594 81.5C38.5653 81.5 38.5712 81.5 38.5772 81.5C38.5831 81.5 38.589 81.5 38.5949 81.5C38.6008 81.5 38.6068 81.5 38.6127 81.5C38.6186 81.5 38.6245 81.5 38.6304 81.5C38.6364 81.5 38.6423 81.5 38.6482 81.5C38.6541 81.5 38.66 81.5 38.666 81.5C38.6719 81.5 38.6778 81.5 38.6837 81.5C38.6897 81.5 38.6956 81.5 38.7015 81.5C38.7074 81.5 38.7134 81.5 38.7193 81.5C38.7252 81.5 38.7311 81.5 38.737 81.5C38.743 81.5 38.7489 81.5 38.7548 81.5C38.7607 81.5 38.7667 81.5 38.7726 81.5C38.7785 81.5 38.7844 81.5 38.7904 81.5C38.7963 81.5 38.8022 81.5 38.8081 81.5C38.8141 81.5 38.82 81.5 38.8259 81.5C38.8318 81.5 38.8378 81.5 38.8437 81.5C38.8496 81.5 38.8556 81.5 38.8615 81.5C38.8674 81.5 38.8733 81.5 38.8793 81.5C38.8852 81.5 38.8911 81.5 38.897 81.5C38.903 81.5 38.9089 81.5 38.9148 81.5C38.9207 81.5 38.9267 81.5 38.9326 81.5C38.9385 81.5 38.9445 81.5 38.9504 81.5C38.9563 81.5 38.9622 81.5 38.9682 81.5C38.9741 81.5 38.98 81.5 38.986 81.5C38.9919 81.5 38.9978 81.5 39.0037 81.5C39.0097 81.5 39.0156 81.5 39.0215 81.5C39.0275 81.5 39.0334 81.5 39.0393 81.5C39.0453 81.5 39.0512 81.5 39.0571 81.5C39.0631 81.5 39.069 81.5 39.0749 81.5C39.0808 81.5 39.0868 81.5 39.0927 81.5C39.0986 81.5 39.1046 81.5 39.1105 81.5C39.1164 81.5 39.1224 81.5 39.1283 81.5C39.1342 81.5 39.1402 81.5 39.1461 81.5C39.152 81.5 39.158 81.5 39.1639 81.5C39.1698 81.5 39.1758 81.5 39.1817 81.5C39.1876 81.5 39.1936 81.5 39.1995 81.5C39.2054 81.5 39.2114 81.5 39.2173 81.5C39.2232 81.5 39.2292 81.5 39.2351 81.5C39.241 81.5 39.247 81.5 39.2529 81.5C39.2588 81.5 39.2648 81.5 39.2707 81.5C39.2766 81.5 39.2826 81.5 39.2885 81.5C39.2945 81.5 39.3004 81.5 39.3063 81.5C39.3123 81.5 39.3182 81.5 39.3241 81.5C39.3301 81.5 39.336 81.5 39.3419 81.5C39.3479 81.5 39.3538 81.5 39.3598 81.5C39.3657 81.5 39.3716 81.5 39.3776 81.5C39.3835 81.5 39.3894 81.5 39.3954 81.5C39.4013 81.5 39.4073 81.5 39.4132 81.5C39.4191 81.5 39.4251 81.5 39.431 81.5C39.4369 81.5 39.4429 81.5 39.4488 81.5C39.4548 81.5 39.4607 81.5 39.4666 81.5C39.4726 81.5 39.4785 81.5 39.4845 81.5C39.4904 81.5 39.4963 81.5 39.5023 81.5C39.5082 81.5 39.5142 81.5 39.5201 81.5C39.526 81.5 39.532 81.5 39.5379 81.5C39.5439 81.5 39.5498 81.5 39.5558 81.5C39.5617 81.5 39.5676 81.5 39.5736 81.5C39.5795 81.5 39.5855 81.5 39.5914 81.5C39.5973 81.5 39.6033 81.5 39.6092 81.5C39.6152 81.5 39.6211 81.5 39.6271 81.5C39.633 81.5 39.6389 81.5 39.6449 81.5C39.6508 81.5 39.6568 81.5 39.6627 81.5C39.6687 81.5 39.6746 81.5 39.6805 81.5C39.6865 81.5 39.6924 81.5 39.6984 81.5C39.7043 81.5 39.7103 81.5 39.7162 81.5C39.7222 81.5 39.7281 81.5 39.7341 81.5C39.74 81.5 39.7459 81.5 39.7519 81.5C39.7578 81.5 39.7638 81.5 39.7697 81.5C39.7757 81.5 39.7816 81.5 39.7876 81.5C39.7935 81.5 39.7995 81.5 39.8054 81.5C39.8113 81.5 39.8173 81.5 39.8232 81.5C39.8292 81.5 39.8351 81.5 39.8411 81.5C39.847 81.5 39.853 81.5 39.8589 81.5C39.8649 81.5 39.8708 81.5 39.8768 81.5C39.8827 81.5 39.8887 81.5 39.8946 81.5C39.9006 81.5 39.9065 81.5 39.9125 81.5C39.9184 81.5 39.9244 81.5 39.9303 81.5C39.9363 81.5 39.9422 81.5 39.9482 81.5C39.9541 81.5 39.9601 81.5 39.966 81.5C39.972 81.5 39.9779 81.5 39.9839 81.5C39.9898 81.5 39.9958 81.5 40.0017 81.5C40.0077 81.5 40.0136 81.5 40.0196 81.5C40.0255 81.5 40.0315 81.5 40.0374 81.5C40.0434 81.5 40.0493 81.5 40.0553 81.5C40.0612 81.5 40.0672 81.5 40.0731 81.5C40.0791 81.5 40.085 81.5 40.091 81.5C40.0969 81.5 40.1029 81.5 40.1088 81.5C40.1148 81.5 40.1208 81.5 40.1267 81.5C40.1327 81.5 40.1386 81.5 40.1446 81.5C40.1505 81.5 40.1565 81.5 40.1624 81.5C40.1684 81.5 40.1743 81.5 40.1803 81.5C40.1863 81.5 40.1922 81.5 40.1982 81.5C40.2041 81.5 40.2101 81.5 40.216 81.5C40.222 81.5 40.2279 81.5 40.2339 81.5C40.2399 81.5 40.2458 81.5 40.2518 81.5C40.2577 81.5 40.2637 81.5 40.2696 81.5C40.2756 81.5 40.2815 81.5 40.2875 81.5C40.2935 81.5 40.2994 81.5 40.3054 81.5C40.3113 81.5 40.3173 81.5 40.3232 81.5C40.3292 81.5 40.3352 81.5 40.3411 81.5C40.3471 81.5 40.353 81.5 40.359 81.5C40.365 81.5 40.3709 81.5 40.3769 81.5C40.3828 81.5 40.3888 81.5 40.3948 81.5C40.4007 81.5 40.4067 81.5 40.4126 81.5C40.4186 81.5 40.4245 81.5 40.4305 81.5C40.4365 81.5 40.4424 81.5 40.4484 81.5C40.4543 81.5 40.4603 81.5 40.4663 81.5C40.4722 81.5 40.4782 81.5 40.4842 81.5C40.4901 81.5 40.4961 81.5 40.502 81.5C40.508 81.5 40.514 81.5 40.5199 81.5C40.5259 81.5 40.5318 81.5 40.5378 81.5C40.5438 81.5 40.5497 81.5 40.5557 81.5C40.5617 81.5 40.5676 81.5 40.5736 81.5C40.5796 81.5 40.5855 81.5 40.5915 81.5C40.5974 81.5 40.6034 81.5 40.6094 81.5C40.6153 81.5 40.6213 81.5 40.6273 81.5C40.6332 81.5 40.6392 81.5 40.6452 81.5C40.6511 81.5 40.6571 81.5 40.663 81.5C40.669 81.5 40.675 81.5 40.6809 81.5C40.6869 81.5 40.6929 81.5 40.6988 81.5C40.7048 81.5 40.7108 81.5 40.7167 81.5C40.7227 81.5 40.7287 81.5 40.7346 81.5C40.7406 81.5 40.7466 81.5 40.7525 81.5C40.7585 81.5 40.7645 81.5 40.7704 81.5C40.7764 81.5 40.7824 81.5 40.7883 81.5C40.7943 81.5 40.8003 81.5 40.8062 81.5C40.8122 81.5 40.8182 81.5 40.8242 81.5C40.8301 81.5 40.8361 81.5 40.8421 81.5C40.848 81.5 40.854 81.5 40.86 81.5C40.8659 81.5 40.8719 81.5 40.8779 81.5C40.8838 81.5 40.8898 81.5 40.8958 81.5C40.9018 81.5 40.9077 81.5 40.9137 81.5C40.9197 81.5 40.9256 81.5 40.9316 81.5C40.9376 81.5 40.9435 81.5 40.9495 81.5C40.9555 81.5 40.9615 81.5 40.9674 81.5C40.9734 81.5 40.9794 81.5 40.9853 81.5C40.9913 81.5 40.9973 81.5 41.0033 81.5C41.0092 81.5 41.0152 81.5 41.0212 81.5C41.0272 81.5 41.0331 81.5 41.0391 81.5C41.0451 81.5 41.051 81.5 41.057 81.5C41.063 81.5 41.069 81.5 41.0749 81.5C41.0809 81.5 41.0869 81.5 41.0929 81.5C41.0988 81.5 41.1048 81.5 41.1108 81.5C41.1168 81.5 41.1227 81.5 41.1287 81.5C41.1347 81.5 41.1407 81.5 41.1466 81.5C41.1526 81.5 41.1586 81.5 41.1646 81.5C41.1705 81.5 41.1765 81.5 41.1825 81.5C41.1885 81.5 41.1944 81.5 41.2004 81.5C41.2064 81.5 41.2124 81.5 41.2183 81.5C41.2243 81.5 41.2303 81.5 41.2363 81.5C41.2423 81.5 41.2482 81.5 41.2542 81.5C41.2602 81.5 41.2662 81.5 41.2721 81.5C41.2781 81.5 41.2841 81.5 41.2901 81.5C41.2961 81.5 41.302 81.5 41.308 81.5C41.314 81.5 41.32 81.5 41.326 81.5C41.3319 81.5 41.3379 81.5 41.3439 81.5C41.3499 81.5 41.3559 81.5 41.3618 81.5C41.3678 81.5 41.3738 81.5 41.3798 81.5C41.3857 81.5 41.3917 81.5 41.3977 81.5C41.4037 81.5 41.4097 81.5 41.4157 81.5C41.4216 81.5 41.4276 81.5 41.4336 81.5C41.4396 81.5 41.4456 81.5 41.4515 81.5C41.4575 81.5 41.4635 81.5 41.4695 81.5C41.4755 81.5 41.4815 81.5 41.4874 81.5C41.4934 81.5 41.4994 81.5 41.5054 81.5C41.5114 81.5 41.5173 81.5 41.5233 81.5C41.5293 81.5 41.5353 81.5 41.5413 81.5C41.5473 81.5 41.5533 81.5 41.5592 81.5C41.5652 81.5 41.5712 81.5 41.5772 81.5C41.5832 81.5 41.5892 81.5 41.5951 81.5C41.6011 81.5 41.6071 81.5 41.6131 81.5C41.6191 81.5 41.6251 81.5 41.6311 81.5C41.637 81.5 41.643 81.5 41.649 81.5C41.655 81.5 41.661 81.5 41.667 81.5C41.673 81.5 41.6789 81.5 41.6849 81.5C41.6909 81.5 41.6969 81.5 41.7029 81.5C41.7089 81.5 41.7149 81.5 41.7209 81.5C41.7268 81.5 41.7328 81.5 41.7388 81.5C41.7448 81.5 41.7508 81.5 41.7568 81.5C41.7628 81.5 41.7688 81.5 41.7747 81.5C41.7807 81.5 41.7867 81.5 41.7927 81.5C41.7987 81.5 41.8047 81.5 41.8107 81.5C41.8167 81.5 41.8227 81.5 41.8286 81.5C41.8346 81.5 41.8406 81.5 41.8466 81.5C41.8526 81.5 41.8586 81.5 41.8646 81.5C41.8706 81.5 41.8766 81.5 41.8826 81.5C41.8886 81.5 41.8945 81.5 41.9005 81.5C41.9065 81.5 41.9125 81.5 41.9185 81.5C41.9245 81.5 41.9305 81.5 41.9365 81.5C41.9425 81.5 41.9485 81.5 41.9545 81.5C41.9605 81.5 41.9664 81.5 41.9724 81.5C41.9784 81.5 41.9844 81.5 41.9904 81.5C41.9964 81.5 42.0024 81.5 42.0084 81.5C42.0144 81.5 42.0204 81.5 42.0264 81.5C42.0324 81.5 42.0384 81.5 42.0444 81.5C42.0504 81.5 42.0564 81.5 42.0624 81.5C42.0683 81.5 42.0743 81.5 42.0803 81.5C42.0863 81.5 42.0923 81.5 42.0983 81.5C42.1043 81.5 42.1103 81.5 42.1163 81.5C42.1223 81.5 42.1283 81.5 42.1343 81.5C42.1403 81.5 42.1463 81.5 42.1523 81.5C42.1583 81.5 42.1643 81.5 42.1703 81.5C42.1763 81.5 42.1823 81.5 42.1883 81.5C42.1943 81.5 42.2003 81.5 42.2063 81.5C42.2123 81.5 42.2183 81.5 42.2243 81.5C42.2303 81.5 42.2363 81.5 42.2423 81.5C42.2482 81.5 42.2542 81.5 42.2602 81.5C42.2662 81.5 42.2722 81.5 42.2782 81.5C42.2842 81.5 42.2902 81.5 42.2962 81.5C42.3022 81.5 42.3082 81.5 42.3142 81.5C42.3202 81.5 42.3262 81.5 42.3322 81.5C42.3382 81.5 42.3442 81.5 42.3502 81.5C42.3562 81.5 42.3622 81.5 42.3682 81.5C42.3743 81.5 42.3803 81.5 42.3863 81.5C42.3923 81.5 42.3983 81.5 42.4043 81.5C42.4103 81.5 42.4163 81.5 42.4223 81.5C42.4283 81.5 42.4343 81.5 42.4403 81.5C42.4463 81.5 42.4523 81.5 42.4583 81.5C42.4643 81.5 42.4703 81.5 42.4763 81.5C42.4823 81.5 42.4883 81.5 42.4943 81.5C42.5003 81.5 42.5063 81.5 42.5123 81.5C42.5183 81.5 42.5243 81.5 42.5303 81.5C42.5363 81.5 42.5423 81.5 42.5483 81.5C42.5544 81.5 42.5604 81.5 42.5664 81.5C42.5724 81.5 42.5784 81.5 42.5844 81.5C42.5904 81.5 42.5964 81.5 42.6024 81.5C42.6084 81.5 42.6144 81.5 42.6204 81.5C42.6264 81.5 42.6324 81.5 42.6384 81.5C42.6444 81.5 42.6505 81.5 42.6565 81.5C42.6625 81.5 42.6685 81.5 42.6745 81.5C42.6805 81.5 42.6865 81.5 42.6925 81.5C42.6985 81.5 42.7045 81.5 42.7105 81.5C42.7165 81.5 42.7225 81.5 42.7286 81.5C42.7346 81.5 42.7406 81.5 42.7466 81.5C42.7526 81.5 42.7586 81.5 42.7646 81.5C42.7706 81.5 42.7766 81.5 42.7826 81.5C42.7887 81.5 42.7947 81.5 42.8007 81.5C42.8067 81.5 42.8127 81.5 42.8187 81.5C42.8247 81.5 42.8307 81.5 42.8367 81.5C42.8427 81.5 42.8488 81.5 42.8548 81.5C42.8608 81.5 42.8668 81.5 42.8728 81.5C42.8788 81.5 42.8848 81.5 42.8908 81.5C42.8969 81.5 42.9029 81.5 42.9089 81.5C42.9149 81.5 42.9209 81.5 42.9269 81.5C42.9329 81.5 42.9389 81.5 42.945 81.5C42.951 81.5 42.957 81.5 42.963 81.5C42.969 81.5 42.975 81.5 42.981 81.5C42.9871 81.5 42.9931 81.5 42.9991 81.5C43.0051 81.5 43.0111 81.5 43.0171 81.5C43.0231 81.5 43.0292 81.5 43.0352 81.5C43.0412 81.5 43.0472 81.5 43.0532 81.5C43.0592 81.5 43.0653 81.5 43.0713 81.5C43.0773 81.5 43.0833 81.5 43.0893 81.5C43.0953 81.5 43.1014 81.5 43.1074 81.5C43.1134 81.5 43.1194 81.5 43.1254 81.5C43.1314 81.5 43.1375 81.5 43.1435 81.5C43.1495 81.5 43.1555 81.5 43.1615 81.5C43.1675 81.5 43.1736 81.5 43.1796 81.5C43.1856 81.5 43.1916 81.5 43.1976 81.5C43.2037 81.5 43.2097 81.5 43.2157 81.5C43.2217 81.5 43.2277 81.5 43.2338 81.5C43.2398 81.5 43.2458 81.5 43.2518 81.5C43.2578 81.5 43.2639 81.5 43.2699 81.5C43.2759 81.5 43.2819 81.5 43.2879 81.5C43.294 81.5 43.3 81.5 43.306 81.5C43.312 81.5 43.318 81.5 43.3241 81.5C43.3301 81.5 43.3361 81.5 43.3421 81.5C43.3481 81.5 43.3542 81.5 43.3602 81.5C43.3662 81.5 43.3722 81.5 43.3783 81.5C43.3843 81.5 43.3903 81.5 43.3963 81.5C43.4024 81.5 43.4084 81.5 43.4144 81.5C43.4204 81.5 43.4264 81.5 43.4325 81.5C43.4385 81.5 43.4445 81.5 43.4505 81.5C43.4566 81.5 43.4626 81.5 43.4686 81.5C43.4746 81.5 43.4807 81.5 43.4867 81.5C43.4927 81.5 43.4987 81.5 43.5048 81.5C43.5108 81.5 43.5168 81.5 43.5228 81.5C43.5289 81.5 43.5349 81.5 43.5409 81.5C43.5469 81.5 43.553 81.5 43.559 81.5C43.565 81.5 43.571 81.5 43.5771 81.5C43.5831 81.5 43.5891 81.5 43.5952 81.5C43.6012 81.5 43.6072 81.5 43.6132 81.5C43.6193 81.5 43.6253 81.5 43.6313 81.5C43.6374 81.5 43.6434 81.5 43.6494 81.5C43.6554 81.5 43.6615 81.5 43.6675 81.5C43.6735 81.5 43.6796 81.5 43.6856 81.5C43.6916 81.5 43.6976 81.5 43.7037 81.5C43.7097 81.5 43.7157 81.5 43.7218 81.5C43.7278 81.5 43.7338 81.5 43.7398 81.5C43.7459 81.5 43.7519 81.5 43.7579 81.5C43.764 81.5 43.77 81.5 43.776 81.5C43.7821 81.5 43.7881 81.5 43.7941 81.5C43.8002 81.5 43.8062 81.5 43.8122 81.5C43.8183 81.5 43.8243 81.5 43.8303 81.5C43.8363 81.5 43.8424 81.5 43.8484 81.5C43.8544 81.5 43.8605 81.5 43.8665 81.5C43.8725 81.5 43.8786 81.5 43.8846 81.5C43.8906 81.5 43.8967 81.5 43.9027 81.5C43.9087 81.5 43.9148 81.5 43.9208 81.5C43.9268 81.5 43.9329 81.5 43.9389 81.5C43.945 81.5 43.951 81.5 43.957 81.5C43.9631 81.5 43.9691 81.5 43.9751 81.5C43.9812 81.5 43.9872 81.5 43.9932 81.5C43.9993 81.5 44.0053 81.5 44.0113 81.5C44.0174 81.5 44.0234 81.5 44.0294 81.5C44.0355 81.5 44.0415 81.5 44.0476 81.5C44.0536 81.5 44.0596 81.5 44.0657 81.5C44.0717 81.5 44.0777 81.5 44.0838 81.5C44.0898 81.5 44.0959 81.5 44.1019 81.5C44.1079 81.5 44.114 81.5 44.12 81.5C44.126 81.5 44.1321 81.5 44.1381 81.5C44.1442 81.5 44.1502 81.5 44.1562 81.5C44.1623 81.5 44.1683 81.5 44.1744 81.5C44.1804 81.5 44.1864 81.5 44.1925 81.5C44.1985 81.5 44.2046 81.5 44.2106 81.5C44.2166 81.5 44.2227 81.5 44.2287 81.5C44.2348 81.5 44.2408 81.5 44.2468 81.5C44.2529 81.5 44.2589 81.5 44.265 81.5C44.271 81.5 44.277 81.5 44.2831 81.5C44.2891 81.5 44.2952 81.5 44.3012 81.5C44.3073 81.5 44.3133 81.5 44.3193 81.5C44.3254 81.5 44.3314 81.5 44.3375 81.5C44.3435 81.5 44.3496 81.5 44.3556 81.5C44.3616 81.5 44.3677 81.5 44.3737 81.5C44.3798 81.5 44.3858 81.5 44.3919 81.5C44.3979 81.5 44.4039 81.5 44.41 81.5C44.416 81.5 44.4221 81.5 44.4281 81.5C44.4342 81.5 44.4402 81.5 44.4463 81.5C44.4523 81.5 44.4583 81.5 44.4644 81.5C44.4704 81.5 44.4765 81.5 44.4825 81.5C44.4886 81.5 44.4946 81.5 44.5007 81.5C44.5067 81.5 44.5128 81.5 44.5188 81.5C44.5249 81.5 44.5309 81.5 44.5369 81.5C44.543 81.5 44.549 81.5 44.5551 81.5C44.5611 81.5 44.5672 81.5 44.5732 81.5C44.5793 81.5 44.5853 81.5 44.5914 81.5C44.5974 81.5 44.6035 81.5 44.6095 81.5C44.6156 81.5 44.6216 81.5 44.6277 81.5C44.6337 81.5 44.6398 81.5 44.6458 81.5C44.6519 81.5 44.6579 81.5 44.664 81.5C44.67 81.5 44.6761 81.5 44.6821 81.5C44.6882 81.5 44.6942 81.5 44.7003 81.5C44.7063 81.5 44.7124 81.5 44.7184 81.5C44.7245 81.5 44.7305 81.5 44.7366 81.5C44.7426 81.5 44.7487 81.5 44.7547 81.5C44.7608 81.5 44.7668 81.5 44.7729 81.5C44.7789 81.5 44.785 81.5 44.791 81.5C44.7971 81.5 44.8031 81.5 44.8092 81.5C44.8153 81.5 44.8213 81.5 44.8274 81.5C44.8334 81.5 44.8395 81.5 44.8455 81.5C44.8516 81.5 44.8576 81.5 44.8637 81.5C44.8697 81.5 44.8758 81.5 44.8818 81.5C44.8879 81.5 44.8939 81.5 44.9 81.5V78.5ZM35.75 78.5H0.650001V81.5H35.75V78.5ZM2.15 80V77.45H-0.849999V80H2.15ZM1.75991 78.459C4.71467 75.2088 8.27316 71.7477 12.4415 68.0755L10.4585 65.8245C6.22684 69.5523 2.58533 73.0912 -0.45991 76.441L1.75991 78.459ZM12.4564 68.0623C16.6987 64.224 20.7874 60.0846 24.7225 55.645L22.4775 53.655C18.6126 58.0154 14.6013 62.076 10.4436 65.8377L12.4564 68.0623ZM24.7211 55.6465C28.8055 51.0516 32.1807 46.0927 34.8416 40.7708L32.1584 39.4292C29.6193 44.5073 26.3945 49.2484 22.4789 53.6535L24.7211 55.6465ZM34.8366 40.7809C37.6486 35.261 39.05 29.2763 39.05 22.85H36.05C36.05 28.8237 34.7514 34.339 32.1634 39.4191L34.8366 40.7809ZM39.05 22.85C39.05 16.9586 37.6596 12.3572 34.5191 9.44936L32.4809 11.6506C34.7404 13.7427 36.05 17.3414 36.05 22.85H39.05ZM34.5607 9.48933C31.6067 6.53542 27.5318 5.14999 22.55 5.14999V8.14999C26.9682 8.14999 30.1933 9.36458 32.4393 11.6107L34.5607 9.48933ZM22.55 5.14999C18.2272 5.14999 14.2272 6.45359 10.585 9.02454L12.315 11.4754C15.4728 9.24641 18.8728 8.14999 22.55 8.14999V5.14999ZM10.6095 9.00757C6.96275 11.4745 3.81789 15.1785 1.13745 20.0239L3.76255 21.4761C6.28211 16.9215 9.13725 13.6255 12.2905 11.4924L10.6095 9.00757ZM3.18539 19.4426L0.785392 18.0926L-0.685392 20.7074L1.71461 22.0574L3.18539 19.4426ZM1.40819 20.0367C2.8427 16.9763 4.7598 14.0972 7.16891 11.399L4.93109 9.40097C2.3402 12.3028 0.257297 15.4236 -1.30819 18.7633L1.40819 20.0367ZM7.16685 11.4013C9.62344 8.66127 12.6579 6.42709 16.2921 4.7056L15.0079 1.99438C11.0421 3.87289 7.67656 6.33872 4.93315 9.39868L7.16685 11.4013ZM16.2786 4.71194C19.9377 3.02313 24.3629 2.14999 29.6 2.14999V-0.850006C24.0371 -0.850006 19.1623 0.0768509 15.0214 1.98805L16.2786 4.71194Z" fill="#FFF7EF"/>
</svg>
