<svg width="34" height="47" viewBox="0 0 34 47" fill="none" xmlns="http://www.w3.org/2000/svg">
<path d="M17.5961 45.8295L33.0042 31.0645C33.505 30.5847 33.505 29.8046 33.0042 29.3247C32.5034 28.8449 31.6894 28.8449 31.1886 29.3247L17.9736 41.9881V1.89392C17.9736 1.21474 17.3983 0.663513 16.6896 0.663513C15.9808 0.663513 15.4056 1.21474 15.4056 1.89392V41.9881L2.19052 29.3247C1.68976 28.8449 0.875695 28.8449 0.374931 29.3247C0.123265 29.5659 0 29.8809 0 30.1959C0 30.5108 0.125833 30.8258 0.374931 31.067L15.783 45.8319C16.2838 46.3118 17.0979 46.3118 17.5986 45.8319L17.5961 45.8295Z" fill="white"/>
</svg>
