<svg width="10" height="6" viewBox="0 0 10 6" fill="none" xmlns="http://www.w3.org/2000/svg">
<path d="M9.30589 0.610348L4.99956 4.59812L0.693224 0.610348C0.616284 0.538956 0.512998 0.498987 0.405445 0.498987C0.297893 0.498987 0.194607 0.538956 0.117667 0.610348C0.080413 0.645024 0.0508167 0.686412 0.0306119 0.73209C0.0104071 0.777768 0 0.826817 0 0.876363C0 0.92591 0.0104071 0.974959 0.0306119 1.02064C0.0508167 1.06631 0.080413 1.1077 0.117667 1.14238L4.69886 5.38553C4.77931 5.46002 4.88721 5.50172 4.99956 5.50172C5.11191 5.50172 5.21981 5.46002 5.30026 5.38553L9.88145 1.1432C9.91897 1.1085 9.94879 1.06701 9.96915 1.02118C9.98951 0.975347 10 0.926107 10 0.876363C10 0.826619 9.98951 0.777379 9.96915 0.73155C9.94879 0.685721 9.91897 0.644231 9.88145 0.609529C9.80451 0.538137 9.70123 0.498169 9.59367 0.498169C9.48612 0.498169 9.38283 0.538137 9.30589 0.609529V0.610348Z" fill="#FF2E2E"/>
</svg>
