<svg width="14" height="8" viewBox="0 0 14 8" fill="none" xmlns="http://www.w3.org/2000/svg">
<path d="M1.04982 0.767679C1.2331 0.596284 1.48164 0.5 1.7408 0.5C1.99995 0.5 2.24849 0.596284 2.43177 0.767679L7.26957 5.2932L12.1074 0.767679C12.2917 0.601142 12.5386 0.50899 12.7948 0.511073C13.0511 0.513157 13.2962 0.609307 13.4774 0.778816C13.6586 0.948325 13.7614 1.17763 13.7636 1.41734C13.7659 1.65705 13.6674 1.888 13.4893 2.06042L7.96055 7.23232C7.77727 7.40372 7.52873 7.5 7.26957 7.5C7.01042 7.5 6.76187 7.40372 6.5786 7.23232L1.04982 2.06042C0.8666 1.88898 0.763672 1.65648 0.763672 1.41405C0.763672 1.17163 0.8666 0.939126 1.04982 0.767679V0.767679Z" fill="#FF2E2E"/>
</svg>
