<svg width="34" height="49" viewBox="0 0 34 49" fill="none" xmlns="http://www.w3.org/2000/svg">
<path d="M15.7838 0.989609L0.37569 16.3977C-0.125072 16.8985 -0.125072 17.7126 0.37569 18.2133C0.876453 18.7141 1.69052 18.7141 2.19128 18.2133L15.4063 4.99829L15.4063 46.839C15.4063 47.5478 15.9815 48.123 16.6903 48.123C17.3991 48.123 17.9743 47.5478 17.9743 46.839L17.9743 4.99829L31.1894 18.2133C31.6901 18.7141 32.5042 18.7141 33.005 18.2133C33.2566 17.9617 33.3799 17.6329 33.3799 17.3042C33.3799 16.9755 33.2541 16.6468 33.005 16.3952L17.5968 0.987045C17.0961 0.486279 16.282 0.486279 15.7812 0.987045L15.7838 0.989609Z" fill="black"/>
</svg>
