<svg width="46" height="79" viewBox="0 0 46 79" fill="none" xmlns="http://www.w3.org/2000/svg">
<path d="M30.95 0.0999985H32.45V-2.80588L30.0812 -1.12277L30.95 0.0999985ZM34.25 73.3L33.3328 74.4869L34.25 73.3ZM45.35 75.85H46.85V74.35H45.35V75.85ZM45.35 79L45.2751 80.4981L46.85 80.5769V79H45.35ZM36.5 78.7L36.4212 80.1979L36.4413 80.199L36.4616 80.1995L36.5 78.7ZM11.3 78.7L11.3357 80.1996L11.3527 80.1992L11.3697 80.1984L11.3 78.7ZM1.55 79H0.0500007V80.5666L1.61516 80.4986L1.55 79ZM1.55 75.85V74.35H0.0500007V75.85H1.55ZM13.25 73.45L13.9942 74.7524L14.0115 74.7425L14.0285 74.7322L13.25 73.45ZM15.95 16.6L17.3256 16.0019L15.95 16.6ZM10.55 12.1L10.1456 13.5444L10.1528 13.5465L10.16 13.5484L10.55 12.1ZM0.0500002 11.05H-1.45V12.55H0.0500002V11.05ZM0.0500002 7.75L0.00834942 6.25057L-1.45 6.29108V7.75H0.0500002ZM18.05 5.8L17.7149 4.3379L18.05 5.8ZM29.45 0.0999985V63.55H32.45V0.0999985H29.45ZM29.45 63.55C29.45 68.4872 30.5669 72.3496 33.3328 74.4869L35.1672 72.1131C33.5331 70.8504 32.45 68.2128 32.45 63.55H29.45ZM33.3328 74.4869C35.9416 76.5028 40.0685 77.35 45.35 77.35V74.35C40.2315 74.35 36.9584 73.4972 35.1672 72.1131L33.3328 74.4869ZM43.85 75.85V79H46.85V75.85H43.85ZM45.4249 77.5019C43.4062 77.4009 40.4415 77.3006 36.5385 77.2005L36.4616 80.1995C40.3585 80.2994 43.2938 80.3991 45.2751 80.4981L45.4249 77.5019ZM36.5788 77.2021C32.7507 77.0006 28.7743 76.9 24.65 76.9V79.9C28.7257 79.9 32.6493 79.9994 36.4212 80.1979L36.5788 77.2021ZM24.65 76.9C20.0283 76.9 15.555 77.0005 11.2303 77.2016L11.3697 80.1984C15.645 79.9995 20.0717 79.9 24.65 79.9V76.9ZM11.2643 77.2004C7.06105 77.3005 3.79955 77.4008 1.48485 77.5014L1.61516 80.4986C3.90045 80.3992 7.13895 80.2995 11.3357 80.1996L11.2643 77.2004ZM3.05 79V75.85H0.0500007V79H3.05ZM1.55 77.35C6.67987 77.35 10.8758 76.5343 13.9942 74.7524L12.5058 72.1476C10.0242 73.5657 6.42013 74.35 1.55 74.35V77.35ZM14.0285 74.7322C17.4728 72.641 18.95 68.6938 18.95 63.55H15.95C15.95 68.2061 14.6272 70.859 12.4715 72.1678L14.0285 74.7322ZM18.95 63.55V27.25H15.95V63.55H18.95ZM18.95 27.25C18.95 22.398 18.4524 18.5935 17.3256 16.0019L14.5744 17.1981C15.4476 19.2065 15.95 22.502 15.95 27.25H18.95ZM17.3256 16.0019C16.1287 13.2491 13.9435 11.4602 10.94 10.6516L10.16 13.5484C12.3565 14.1398 13.7713 15.3509 14.5744 17.1981L17.3256 16.0019ZM10.9544 10.6556C8.2608 9.90133 4.6024 9.55 0.0500002 9.55V12.55C4.4976 12.55 7.8392 12.8987 10.1456 13.5444L10.9544 10.6556ZM1.55 11.05V7.75H-1.45V11.05H1.55ZM0.091651 9.24942C7.34955 9.04781 13.4557 8.39174 18.3851 7.26209L17.7149 4.3379C13.0443 5.40825 7.15045 6.05219 0.00834942 6.25057L0.091651 9.24942ZM18.3851 7.26209C23.366 6.12064 27.8494 4.14315 31.8188 1.32277L30.0812 -1.12277C26.4506 1.45685 22.334 3.27936 17.7149 4.3379L18.3851 7.26209Z" fill="#FFF7EF"/>
</svg>
