<svg width="49" height="89" viewBox="0 0 49 89" fill="none" xmlns="http://www.w3.org/2000/svg">
<path d="M34.9777 2.05L34.3764 3.42423L34.402 3.43539L34.4279 3.44561L34.9777 2.05ZM41.6077 7.12L40.3744 7.97382L40.3933 8.00115L40.4134 8.02763L41.6077 7.12ZM41.2177 24.41L39.9696 23.5779L39.9636 23.587L41.2177 24.41ZM34.0677 31.69L34.9081 32.9324L34.9205 32.9241L34.9327 32.9155L34.0677 31.69ZM24.7077 36.5L24.1891 35.0925L24.6758 37.9997L24.7077 36.5ZM36.2777 38.84L35.7149 40.2304L35.7292 40.2362L35.7437 40.2417L36.2777 38.84ZM45.2477 45.21L46.4086 44.2601L45.2477 45.21ZM45.8977 67.31L44.5911 66.573L44.5848 66.5845L45.8977 67.31ZM38.2277 76.15L37.2982 74.9727L37.2811 74.9862L37.2643 75.0002L38.2277 76.15ZM27.1777 82.91L26.5764 81.5358L26.5645 81.541L26.5527 81.5464L27.1777 82.91ZM14.0477 87.2L13.7428 85.7313L13.7372 85.7325L14.0477 87.2ZM0.657656 88.63H-0.842344V90.13H0.657656V88.63ZM0.657656 86.29L0.62825 84.7903L-0.842344 84.8191V86.29H0.657656ZM13.6577 84.08L13.2186 82.6457L13.2053 82.6498L13.1921 82.6541L13.6577 84.08ZM25.0977 78.36L24.2172 77.1456L24.2099 77.1509L24.2026 77.1563L25.0977 78.36ZM33.2877 69L31.9779 68.269L31.9713 68.2807L31.965 68.2925L33.2877 69ZM32.6377 43.65L31.4192 44.5248L31.4319 44.5426L31.4452 44.56L32.6377 43.65ZM22.6277 38.06L22.7497 36.565L22.3981 36.5363L22.0706 36.6673L22.6277 38.06ZM19.1177 39.49L19.6303 40.8997L19.6627 40.8879L19.6946 40.8746L19.1177 39.49ZM14.9577 39.62L13.897 40.6807L13.9724 40.756L14.0577 40.82L14.9577 39.62ZM15.4777 36.5L16.2727 37.772H16.2727L15.4777 36.5ZM19.8977 36.11L19.5339 37.5652L19.6317 37.5897L19.732 37.6008L19.8977 36.11ZM22.3677 36.37L22.2184 37.8626L22.8034 37.9211L23.2723 37.5665L22.3677 36.37ZM30.0377 27.53L31.3865 28.1862L31.3899 28.1792L31.3933 28.1721L30.0377 27.53ZM29.2577 8.81L28.2208 9.89396L28.2449 9.91695L28.2699 9.93886L29.2577 8.81ZM11.1877 8.81L10.3894 7.54004L10.3811 7.54529L10.3728 7.55064L11.1877 8.81ZM3.77766 17.52L3.13896 18.8772L4.45258 19.4954L5.11331 18.2027L3.77766 17.52ZM1.56766 16.48L0.202107 15.8593L-0.410449 17.2069L0.928962 17.8372L1.56766 16.48ZM6.63766 8.55L7.77654 9.52618L7.78498 9.51633L7.79325 9.50635L6.63766 8.55ZM14.3077 2.56999L14.963 3.91926L14.9708 3.91549L14.9785 3.91164L14.3077 2.56999ZM25.3577 1.73C28.8318 1.73 31.827 2.30886 34.3764 3.42423L35.5789 0.675758C32.5816 -0.635544 29.1635 -1.27 25.3577 -1.27V1.73ZM34.4279 3.44561C37.0462 4.47709 39.0036 5.99386 40.3744 7.97382L42.841 6.26618C41.0917 3.73946 38.6291 1.87624 35.5274 0.654381L34.4279 3.44561ZM40.4134 8.02763C41.8334 9.89599 42.5777 12.2077 42.5777 15.05H45.5777C45.5777 11.6523 44.6753 8.67734 42.8019 6.21237L40.4134 8.02763ZM42.5777 15.05C42.5777 18.1286 41.7149 20.9599 39.9696 23.5779L42.4657 25.2421C44.5337 22.1401 45.5777 18.7314 45.5777 15.05H42.5777ZM39.9636 23.587C38.2556 26.1897 36.009 28.4836 33.2026 30.4645L34.9327 32.9155C38.0196 30.7364 40.5398 28.1769 42.4717 25.233L39.9636 23.587ZM33.2272 30.4476C30.3794 32.374 27.3673 33.9216 24.1891 35.0925L25.2262 37.9075C28.6347 36.6518 31.8626 34.9926 34.9081 32.9324L33.2272 30.4476ZM24.6758 37.9997C28.5739 38.0826 32.25 38.828 35.7149 40.2304L36.8404 37.4496C33.0253 35.9053 28.9881 35.0907 24.7396 35.0003L24.6758 37.9997ZM35.7437 40.2417C39.1526 41.5404 41.9217 43.5138 44.0867 46.1599L46.4086 44.2601C43.8936 41.1862 40.6828 38.913 36.8117 37.4383L35.7437 40.2417ZM44.0867 46.1599C46.1623 48.6967 47.2577 52.021 47.2577 56.26H50.2577C50.2577 51.4857 49.013 47.4433 46.4086 44.2601L44.0867 46.1599ZM47.2577 56.26C47.2577 59.9958 46.3674 63.4243 44.5912 66.573L47.2041 68.047C49.2412 64.4357 50.2577 60.4975 50.2577 56.26H47.2577ZM44.5848 66.5845C42.8718 69.6842 40.453 72.482 37.2982 74.9727L39.1571 77.3273C42.589 74.618 45.2835 71.5225 47.2105 68.0355L44.5848 66.5845ZM37.2643 75.0002C34.176 77.5878 30.6168 79.7681 26.5764 81.5358L27.7789 84.2842C32.0586 82.4119 35.866 80.0856 39.191 77.2998L37.2643 75.0002ZM26.5527 81.5464C22.4977 83.405 18.2286 84.8003 13.7428 85.7313L14.3525 88.6687C19.0534 87.6931 23.5377 86.2284 27.8026 84.2736L26.5527 81.5464ZM13.7372 85.7325C9.32833 86.6651 4.96903 87.13 0.657656 87.13V90.13C5.18628 90.13 9.75365 89.6415 14.3581 88.6675L13.7372 85.7325ZM2.15766 88.63V86.29H-0.842344V88.63H2.15766ZM0.687062 87.7897C5.25688 87.7001 9.73714 86.9381 14.1233 85.5059L13.1921 82.6541C9.08484 83.9952 4.89843 84.7066 0.62825 84.7903L0.687062 87.7897ZM14.0967 85.5143C18.4985 84.1668 22.4677 82.1849 25.9927 79.5637L24.2026 77.1563C20.9676 79.5618 17.3102 81.3932 13.2186 82.6457L14.0967 85.5143ZM25.9781 79.5744C29.6262 76.9296 32.5084 73.6371 34.6103 69.7075L31.965 68.2925C30.0802 71.8162 27.5025 74.7637 24.2172 77.1456L25.9781 79.5744ZM34.5975 69.731C36.8162 65.7557 37.9077 61.2521 37.9077 56.26H34.9077C34.9077 60.8013 33.9191 64.791 31.9779 68.269L34.5975 69.731ZM37.9077 56.26C37.9077 50.8965 36.5859 46.3511 33.8301 42.74L31.4452 44.56C33.7161 47.5356 34.9077 51.3968 34.9077 56.26H37.9077ZM33.8561 42.7752C31.1657 39.0278 27.423 36.9465 22.7497 36.565L22.5056 39.555C26.3256 39.8669 29.2563 41.5122 31.4192 44.5248L33.8561 42.7752ZM22.0706 36.6673C20.7655 37.1893 19.5887 37.6687 18.5407 38.1054L19.6946 40.8746C20.7266 40.4446 21.8899 39.9707 23.1847 39.4527L22.0706 36.6673ZM18.605 38.0803C17.7692 38.3842 17.0792 38.51 16.5177 38.51V41.51C17.5162 41.51 18.5594 41.2891 19.6303 40.8997L18.605 38.0803ZM16.5177 38.51C16.2599 38.51 16.0837 38.4853 15.9715 38.4573C15.8608 38.4296 15.838 38.4053 15.8577 38.42L14.0577 40.82C14.7784 41.3606 15.6801 41.51 16.5177 41.51V38.51ZM16.0183 38.5593C15.9713 38.5124 15.9377 38.469 15.9377 38.32H12.9377C12.9377 39.211 13.2506 40.0343 13.897 40.6807L16.0183 38.5593ZM15.9377 38.32C15.9377 38.0867 15.9923 37.9472 16.2727 37.772L14.6827 35.228C13.5764 35.9194 12.9377 36.9933 12.9377 38.32H15.9377ZM16.2727 37.772C16.7131 37.4967 17.2145 37.35 17.8177 37.35V34.35C16.6875 34.35 15.6289 34.6366 14.6827 35.228L16.2727 37.772ZM17.8177 37.35C18.3846 37.35 18.9558 37.4207 19.5339 37.5652L20.2615 34.6548C19.4528 34.4526 18.6374 34.35 17.8177 34.35V37.35ZM19.732 37.6008C20.518 37.6882 21.3469 37.7754 22.2184 37.8626L22.5169 34.8774C21.6551 34.7913 20.8373 34.7052 20.0633 34.6192L19.732 37.6008ZM23.2723 37.5665C26.9682 34.772 29.7005 31.6518 31.3865 28.1862L28.6888 26.8738C27.2548 29.8215 24.8737 32.5947 21.463 35.1735L23.2723 37.5665ZM31.3933 28.1721C33.0381 24.6997 33.8777 21.1881 33.8777 17.65H30.8777C30.8777 20.6985 30.1572 23.7737 28.6821 26.8879L31.3933 28.1721ZM33.8777 17.65C33.8777 13.3525 32.7804 9.89922 30.2454 7.68113L28.2699 9.93886C29.8949 11.3608 30.8777 13.8009 30.8777 17.65H33.8777ZM30.2945 7.72604C27.955 5.48828 24.8167 4.45 21.0677 4.45V7.45C24.2519 7.45 26.5736 8.31837 28.2208 9.89396L30.2945 7.72604ZM21.0677 4.45C17.2294 4.45 13.6598 5.48439 10.3894 7.54004L11.9859 10.0799C14.7822 8.32227 17.7992 7.45 21.0677 7.45V4.45ZM10.3728 7.55064C7.15632 9.63188 4.52587 12.7602 2.442 16.8373L5.11331 18.2027C7.01611 14.4798 9.32566 11.8014 12.0025 10.0694L10.3728 7.55064ZM4.41635 16.1628L2.20635 15.1228L0.928962 17.8372L3.13896 18.8772L4.41635 16.1628ZM2.93321 17.1007C4.17375 14.3715 5.78684 11.8475 7.77654 9.52618L5.49877 7.57381C3.32847 10.1058 1.56157 12.8685 0.202107 15.8593L2.93321 17.1007ZM7.79325 9.50635C9.73186 7.16386 12.1159 5.30212 14.963 3.91926L13.6523 1.22073C10.4327 2.78453 7.70345 4.90947 5.48207 7.59364L7.79325 9.50635ZM14.9785 3.91164C17.8497 2.476 21.294 1.73 25.3577 1.73V-1.27C20.928 -1.27 17.0056 -0.456009 13.6368 1.22836L14.9785 3.91164Z" fill="#FFF7EF"/>
</svg>
